<?xml version="1.0" encoding="UTF-8" standalone="no"?>
<!DOCTYPE svg PUBLIC "-//W3C//DTD SVG 1.1//EN" "http://www.w3.org/Graphics/SVG/1.1/DTD/svg11.dtd">
<svg width="100%" height="100%" viewBox="0 0 500 500" version="1.1" xmlns="http://www.w3.org/2000/svg" xmlns:xlink="http://www.w3.org/1999/xlink" xml:space="preserve" xmlns:serif="http://www.serif.com/" style="fill-rule:evenodd;clip-rule:evenodd;stroke-miterlimit:10;">
    <g transform="matrix(1.11049,0,0,1.11668,278.646,217.827)">
        <path d="M0,-21.077L9.161,-26.366L18.322,-21.077L18.322,0L9.161,5.289L0,0L0,-21.077Z" style="fill:rgb(0,181,176);fill-rule:nonzero;stroke:rgb(71,71,71);stroke-width:0.9px;"/>
    </g>
    <g transform="matrix(1.11049,0,0,1.11668,202.749,214.355)">
        <path d="M0,-28.191L12.253,-35.265L24.507,-28.191L24.507,-0.001L12.253,7.074L0,-0.001L0,-28.191Z" style="fill:rgb(0,181,176);fill-rule:nonzero;stroke:rgb(71,71,71);stroke-width:0.9px;"/>
    </g>
    <g transform="matrix(1.11049,0,0,1.11668,182.231,231.543)">
        <path d="M0,-18.637L-8.101,-23.314L-16.202,-18.637L-16.202,0L-8.101,4.677L0,0L0,-18.637Z" style="fill:rgb(0,181,176);fill-rule:nonzero;stroke:rgb(71,71,71);stroke-width:0.9px;"/>
    </g>
    <g transform="matrix(1.11049,0,0,1.11668,161.993,179.058)">
        <path d="M0,-18.637L-8.101,-23.314L-16.202,-18.637L-16.202,0L-8.101,4.677L0,0L0,-18.637Z" style="fill:rgb(0,181,176);fill-rule:nonzero;stroke:rgb(71,71,71);stroke-width:0.9px;"/>
    </g>
    <g transform="matrix(1.11049,0,0,1.11668,182.458,159.734)">
        <path d="M0,-18.637L-8.101,-23.314L-16.202,-18.637L-16.202,0L-8.101,4.677L0,0L0,-18.637Z" style="fill:rgb(0,181,176);fill-rule:nonzero;stroke:rgb(71,71,71);stroke-width:0.9px;"/>
    </g>
    <g transform="matrix(1.11049,0,0,1.11668,168.396,200.936)">
        <path d="M0,-19.138L-8.319,-23.941L-16.638,-19.138L-16.638,0L-8.319,4.803L0,0L0,-19.138Z" style="fill:rgb(0,181,176);fill-rule:nonzero;stroke:rgb(71,71,71);stroke-width:0.9px;"/>
    </g>
    <g transform="matrix(1.11049,0,0,1.11668,216.901,192.052)">
        <path d="M0,-25.682L-11.163,-32.127L-22.326,-25.682L-22.326,-0L-11.163,6.445L0,-0L0,-25.682Z" style="fill:rgb(0,181,176);fill-rule:nonzero;stroke:rgb(71,71,71);stroke-width:0.9px;"/>
    </g>
    <g transform="matrix(1.11049,0,0,1.11668,307.682,342.735)">
        <path d="M0,-125.425L-7.017,-125.425L-20.759,-101.623L-22.791,-105.142L-26.515,-105.142L-23.055,-111.135L-36.882,-135.084L-43.898,-135.084L-47.407,-129.008L-33.58,-105.06L-52.323,-72.597L-68.666,-100.903L-56.309,-122.306L-59.444,-127.737L-65.715,-127.737L-78.073,-106.333L-74.98,-100.977L-78.309,-100.977L-78.319,-100.96L-95.455,-130.523L-101.726,-130.523L-104.862,-125.092L-87.297,-94.787L-81.882,-94.787L-83.109,-92.663L-65.668,-62.455L-65.668,9.659L-37.138,9.659L-37.138,-61.687L-17.505,-95.693L-17.335,-95.399L-10.319,-95.399L3.508,-119.348L0,-125.425Z" style="fill:rgb(35,31,32);fill-rule:nonzero;"/>
    </g>
    <g transform="matrix(1.11049,0,0,1.11668,267.178,219.933)">
        <path d="M0,-34.336L-14.925,-42.953L-29.85,-34.336L-29.85,0L-14.925,8.617L0,0L0,-34.336Z" style="fill:rgb(0,181,176);fill-rule:nonzero;stroke:rgb(71,71,71);stroke-width:0.9px;"/>
    </g>
    <g transform="matrix(1.11049,0,0,1.11668,280.126,163.056)">
        <path d="M0,-34.336L-14.925,-42.953L-29.85,-34.336L-29.85,0L-14.925,8.617L0,0L0,-34.336Z" style="fill:rgb(0,181,176);fill-rule:nonzero;stroke:rgb(71,71,71);stroke-width:0.9px;"/>
    </g>
    <g transform="matrix(1.11049,0,0,1.11668,267.074,174.672)">
        <path d="M0,-34.336L-14.925,-42.953L-29.85,-34.336L-29.85,0L-14.925,8.617L0,0L0,-34.336Z" style="fill:rgb(0,181,176);fill-rule:nonzero;stroke:rgb(71,71,71);stroke-width:0.9px;"/>
    </g>
    <g transform="matrix(1.11049,0,0,1.11668,276.931,144.311)">
        <path d="M0,-34.336L-14.925,-42.953L-29.85,-34.336L-29.85,0L-14.925,8.617L0,0L0,-34.336Z" style="fill:rgb(0,181,176);fill-rule:nonzero;stroke:rgb(71,71,71);stroke-width:0.9px;"/>
    </g>
    <g transform="matrix(1.11049,0,0,1.11668,230.595,145.918)">
        <path d="M0,-34.336L-14.925,-42.953L-29.85,-34.336L-29.85,0L-14.925,8.617L0,0L0,-34.336Z" style="fill:rgb(0,181,176);fill-rule:nonzero;stroke:rgb(71,71,71);stroke-width:0.9px;"/>
    </g>
    <g transform="matrix(1.11049,0,0,1.11668,207.483,166.649)">
        <path d="M0,-34.336L-14.925,-42.953L-29.85,-34.336L-29.85,0L-14.925,8.617L0,0L0,-34.336Z" style="fill:rgb(0,181,176);fill-rule:nonzero;stroke:rgb(71,71,71);stroke-width:0.9px;"/>
    </g>
    <g transform="matrix(1.11049,0,0,1.11668,200.171,212.8)">
        <path d="M0,-34.336L-14.925,-42.953L-29.85,-34.336L-29.85,0L-14.925,8.617L0,0L0,-34.336Z" style="fill:rgb(0,181,176);fill-rule:nonzero;stroke:rgb(71,71,71);stroke-width:0.9px;"/>
    </g>
    <g transform="matrix(1.11049,0,0,1.11668,259.491,147.022)">
        <path d="M0,-31.637L-8.101,-36.314L-16.202,-31.637L-16.202,0L-8.101,4.677L0,0L0,-31.637Z" style="fill:rgb(0,181,176);fill-rule:nonzero;stroke:rgb(71,71,71);stroke-width:0.9px;"/>
    </g>
    <g transform="matrix(1.11049,0,0,1.11668,241.064,201.697)">
        <path d="M0,-44.56L-19.369,-55.742L-38.737,-44.56L-38.737,0L-19.369,11.182L0,0L0,-44.56Z" style="fill:rgb(0,181,176);fill-rule:nonzero;stroke:rgb(71,71,71);stroke-width:0.9px;"/>
    </g>
    <g transform="matrix(1.11049,0,0,1.11668,246.303,159.009)">
        <path d="M0,-34.336L-14.925,-42.953L-29.85,-34.336L-29.85,0L-14.925,8.617L0,0L0,-34.336Z" style="fill:rgb(0,181,176);fill-rule:nonzero;stroke:rgb(71,71,71);stroke-width:0.9px;"/>
    </g>
    <g transform="matrix(1.11049,0,0,1.11668,147.08,190.841)">
        <path d="M0,-18.637L-8.101,-23.314L-16.202,-18.637L-16.202,0L-8.101,4.677L0,0L0,-18.637Z" style="fill:rgb(0,181,176);fill-rule:nonzero;stroke:rgb(71,71,71);stroke-width:0.9px;"/>
    </g>
    <g transform="matrix(1.11049,0,0,1.11668,318.641,231.543)">
        <path d="M0,-18.637L8.101,-23.314L16.202,-18.637L16.202,0L8.101,4.677L0,0L0,-18.637Z" style="fill:rgb(0,181,176);fill-rule:nonzero;stroke:rgb(71,71,71);stroke-width:0.9px;"/>
    </g>
    <g transform="matrix(1.11049,0,0,1.11668,338.879,179.058)">
        <path d="M0,-18.637L8.101,-23.314L16.202,-18.637L16.202,0L8.101,4.677L0,0L0,-18.637Z" style="fill:rgb(0,181,176);fill-rule:nonzero;stroke:rgb(71,71,71);stroke-width:0.9px;"/>
    </g>
    <g transform="matrix(1.11049,0,0,1.11668,318.415,159.734)">
        <path d="M0,-18.637L8.101,-23.314L16.202,-18.637L16.202,0L8.101,4.677L0,0L0,-18.637Z" style="fill:rgb(0,181,176);fill-rule:nonzero;stroke:rgb(71,71,71);stroke-width:0.9px;"/>
    </g>
    <g transform="matrix(1.11049,0,0,1.11668,332.476,200.936)">
        <path d="M0,-19.138L8.319,-23.941L16.638,-19.138L16.638,0L8.319,4.803L0,0L0,-19.138Z" style="fill:rgb(0,181,176);fill-rule:nonzero;stroke:rgb(71,71,71);stroke-width:0.9px;"/>
    </g>
    <g transform="matrix(1.11049,0,0,1.11668,270.277,145.918)">
        <path d="M0,-34.336L14.925,-42.953L29.85,-34.336L29.85,0L14.925,8.617L0,0L0,-34.336Z" style="fill:rgb(0,181,176);fill-rule:nonzero;stroke:rgb(71,71,71);stroke-width:0.9px;"/>
    </g>
    <g transform="matrix(1.11049,0,0,1.11668,293.389,166.649)">
        <path d="M0,-34.336L14.925,-42.953L29.85,-34.336L29.85,0L14.925,8.617L0,0L0,-34.336Z" style="fill:rgb(0,181,176);fill-rule:nonzero;stroke:rgb(71,71,71);stroke-width:0.9px;"/>
    </g>
    <g transform="matrix(1.11049,0,0,1.11668,300.702,212.8)">
        <path d="M0,-34.336L14.925,-42.953L29.85,-34.336L29.85,0L14.925,8.617L0,0L0,-34.336Z" style="fill:rgb(0,181,176);fill-rule:nonzero;stroke:rgb(71,71,71);stroke-width:0.9px;"/>
    </g>
    <g transform="matrix(1.11049,0,0,1.11668,259.808,201.697)">
        <path d="M0,-44.56L19.369,-55.742L38.737,-44.56L38.737,0L19.369,11.182L0,0L0,-44.56Z" style="fill:rgb(0,181,176);fill-rule:nonzero;stroke:rgb(71,71,71);stroke-width:0.9px;"/>
    </g>
    <g transform="matrix(1.11049,0,0,1.11668,254.569,159.009)">
        <path d="M0,-34.336L14.925,-42.953L29.85,-34.336L29.85,0L14.925,8.617L0,0L0,-34.336Z" style="fill:rgb(0,181,176);fill-rule:nonzero;stroke:rgb(71,71,71);stroke-width:0.9px;"/>
    </g>
    <g transform="matrix(1.11049,0,0,1.11668,353.792,190.841)">
        <path d="M0,-18.637L8.101,-23.314L16.202,-18.637L16.202,0L8.101,4.677L0,0L0,-18.637Z" style="fill:rgb(0,181,176);fill-rule:nonzero;stroke:rgb(71,71,71);stroke-width:0.9px;"/>
    </g>
    <g transform="matrix(1.11049,0,0,1.11668,20.1577,353.609)">
        <path d="M0,0L164.659,0" style="fill:none;fill-rule:nonzero;stroke:rgb(0,181,176);stroke-width:1.8px;"/>
    </g>
    <g transform="matrix(0,-1.11668,-1.11049,0,250.646,347.778)">
        <path d="M-5.104,-5.104C-7.923,-5.104 -10.208,-2.819 -10.208,0C-10.208,2.819 -7.923,5.104 -5.104,5.104C-2.285,5.104 0,2.819 0,0C0,-2.819 -2.285,-5.104 -5.104,-5.104" style="fill:rgb(0,181,176);fill-rule:nonzero;"/>
    </g>
    <g transform="matrix(0.765598,0.808875,0.804393,-0.769863,222.017,389.222)">
        <path d="M-18.694,33.771L-11.91,33.771L-11.574,26.995L-85.549,-43.599L-18.694,33.771Z" style="fill:rgb(0,181,176);fill-rule:nonzero;"/>
    </g>
    <g transform="matrix(-1.11049,0,0,1.11668,298.35,353.609)">
        <path d="M-164.436,0L0,0" style="fill:none;fill-rule:nonzero;stroke:rgb(0,181,176);stroke-width:1.8px;"/>
    </g>
    <g transform="matrix(-0.765598,0.808875,0.804393,0.769863,361.863,317.958)">
        <path d="M78.764,-43.6L85.548,-43.6L85.884,-36.824L11.909,33.77L78.764,-43.6Z" style="fill:rgb(0,181,176);fill-rule:nonzero;"/>
    </g>
    <g transform="matrix(1.11049,0,0,1.11668,60.5312,340.272)">
        <path d="M0,-29.758L6.086,-29.758L6.086,-5.187C6.043,-2.338 3.67,0 0.777,0C-0.389,0 -1.555,-0.425 -2.418,-1.106L-30.217,-22.956L-30.217,0L-36.26,0L-36.26,-24.571C-36.26,-27.462 -33.887,-29.758 -30.951,-29.758C-29.785,-29.758 -28.662,-29.375 -27.756,-28.653L0,-6.802L0,-29.758Z" style="fill:rgb(35,31,32);fill-rule:nonzero;"/>
    </g>
    <g transform="matrix(1.11049,0,0,1.11668,82.2074,340.272)">
        <path d="M0,-29.758L33.238,-29.758L33.238,-24.007L0.2,-24.007C-1.484,-24.007 -2.821,-22.646 -2.821,-21.03L-2.821,-17.855L33.238,-17.855L33.238,-11.904L-2.821,-11.904L-2.821,-8.928C-2.821,-7.312 -1.484,-5.794 0.2,-5.794L33.238,-5.794L33.238,0L0,0C-5.008,0 -9.107,-4.038 -9.107,-8.928L-9.107,-20.83C-9.107,-25.762 -5.008,-29.758 0,-29.758" style="fill:rgb(35,31,32);fill-rule:nonzero;"/>
    </g>
    <g transform="matrix(1.11049,0,0,1.11668,154.801,322.992)">
        <path d="M0,1.19L-5.835,-8.432L-8.425,-8.432L-14.305,1.19L0,1.19ZM15.706,15.474L8.711,15.474L3.229,6.546L-17.49,6.546L-22.972,15.474L-29.966,15.474L-13.605,-11.393C-12.57,-13.093 -10.626,-14.284 -8.425,-14.284L-5.835,-14.284C-3.634,-14.284 -1.691,-13.093 -0.656,-11.393L15.706,15.474Z" style="fill:rgb(35,31,32);fill-rule:nonzero;"/>
    </g>
    <g transform="matrix(1.11049,0,0,1.11668,214.693,330.526)">
        <path d="M0,-12.302C0,-13.917 -1.383,-15.279 -3.023,-15.279L-29.819,-15.279L-29.819,-6.151L-3.023,-6.151C-1.383,-6.151 0,-7.468 0,-9.126L0,-12.302ZM-0.232,-0.724L6.069,8.728L-1.383,8.728L-7.426,-0.3L-29.819,-0.3L-29.819,8.728L-36.062,8.728L-36.062,-21.03L-2.823,-21.03C2.184,-21.03 6.2,-17.034 6.2,-12.102L6.2,-9.126C6.2,-5.088 3.522,-1.787 -0.232,-0.724" style="fill:rgb(35,31,32);fill-rule:nonzero;"/>
    </g>
    <g transform="matrix(1.11049,0,0,1.11668,335.659,339.094)">
        <path d="M0,-28.476L5.123,-28.476L5.123,0L0,0L0,-12.086L-44.258,-12.086L-44.258,0L-49.381,0L-49.381,-28.476L-44.258,-28.476L-44.258,-16.448L0,-16.448L0,-28.476Z" style="fill:rgb(35,31,32);fill-rule:nonzero;"/>
    </g>
    <g transform="matrix(1.11049,0,0,1.11668,405.865,339.094)">
        <path d="M0,-28.436L5.123,-28.436L5.123,-8.055C5.123,-3.621 0.271,0 -5.668,0L-38.59,0C-44.531,0 -49.381,-3.621 -49.381,-8.055L-49.381,-28.436L-44.203,-28.436L-44.203,-8.627C-44.203,-6.308 -41.695,-4.396 -38.59,-4.396L-5.668,-4.396C-2.563,-4.396 0,-6.308 0,-8.627L0,-28.436Z" style="fill:rgb(35,31,32);fill-rule:nonzero;"/>
    </g>
    <g transform="matrix(1.11049,0,0,1.11668,476.071,316.29)">
        <path d="M0,12.366C0,10.007 -2.563,8.336 -5.668,8.336L-44.258,8.336L-44.258,16.196L-5.668,16.196C-2.563,16.196 0,14.684 0,12.366M0,0.04C0,-2.279 -2.563,-3.991 -5.668,-3.991L-44.258,-3.991L-44.258,4.09L-5.668,4.09C-2.563,4.09 0,2.399 0,0.04M1.309,6.223C3.652,7.688 5.123,9.926 5.123,12.366C5.123,16.801 0.271,20.421 -5.668,20.421L-49.381,20.421L-49.381,-8.055L-5.668,-8.055C0.271,-8.015 5.123,-4.394 5.123,0.04C5.123,2.481 3.652,4.719 1.309,6.223" style="fill:rgb(35,31,32);fill-rule:nonzero;"/>
    </g>
</svg>
